<?xml version="1.0" encoding="UTF-8" standalone="no"?>
<svg
   width="1200"
   height="400"
   viewBox="0 0 1200 400"
   fill="none"
   version="1.1"
   id="svg7"
   xmlns="http://www.w3.org/2000/svg"
   xmlns:svg="http://www.w3.org/2000/svg">
  <defs
     id="defs7" />
  <path
     d="M115 170 L300 60 L485 170"
     stroke="#0B3F8C"
     stroke-width="16"
     stroke-linecap="round"
     stroke-linejoin="round"
     id="path1" />
  <circle
     cx="170"
     cy="190"
     r="24"
     fill="#1E78D7"
     id="circle1" />
  <path
     d="M136 280 C136 244 154 224 170 224 C186 224 204 244 204 280V318H136V280Z"
     fill="#1E78D7"
     id="path2" />
  <circle
     cx="300"
     cy="160"
     r="24"
     fill="#F39A14"
     id="circle2" />
  <path
     d="M248 280 C248 235 278 210 300 210 C322 210 352 235 352 280V318H248V280Z"
     fill="#F39A14"
     id="path3" />
  <circle
     cx="390"
     cy="190"
     r="24"
     fill="#95C93D"
     id="circle3" />
  <path
     d="M356 280 C356 244 374 224 390 224 C406 224 424 244 424 280V318H356V280Z"
     fill="#95C93D"
     id="path4" />
  <path
     d="M130 315 C182 286 235 274 300 274 C365 274 418 286 470 315"
     fill="#5AA84E"
     id="path5" />
  <path
     d="M130 315 C182 286 235 274 300 274 C365 274 418 286 470 315"
     stroke="#5AA84E"
     stroke-width="4"
     id="path6" />
  <text
     x="525"
     y="245"
     font-family="Inter, Arial, sans-serif"
     font-size="88"
     font-weight="700"
     fill="#0B3F8C"
     id="text6">Clubano</text>
  <text
     x="525"
     y="315"
     font-family="Inter, Arial, sans-serif"
     font-size="42"
     font-weight="400"
     fill="#5B5B5B"
     id="text7">Vereine einfach verwalten</text>
</svg>
